# xmcd
#
# Track frame offsets:
#	150
#	30371
#	51657
#	80260
#	114011
#	172055
#	201155
#	232034
#	255738
#	304280
#
# Disc length: 4666 seconds
#
# Revision: 2
# Processed by: cddbd v1.5.2PL0 Copyright (c) Steve Scherf et al.
# Submitted via: audiograbber 1.83.01
#
DISCID=8212380a
DTITLE=Royal Stockholm Philharmonic Orchestra - E.S.T. Symphony
DYEAR=2016
DGENRE=Jazz
TTITLE0=E.S.T. Prelude
TTITLE1=From Gagarin's Point Of View
TTITLE2=When God Created The Coffeebreak
TTITLE3=Seven Days Of Falling
TTITLE4=Wonderland Suite
TTITLE5=Serenade For The Renegade
TTITLE6=Dodge The Dodo
TTITLE7=Eighthundred Streets By Feet
TTITLE8=Viaticum Suite
TTITLE9=Behind The Yashmak
EXTD=
EXTT0=
EXTT1=
EXTT2=
EXTT3=
EXTT4=
EXTT5=
EXTT6=
EXTT7=
EXTT8=
EXTT9=
PLAYORDER=
